<svg width="66" height="66" viewBox="0 0 66 66" fill="none" xmlns="http://www.w3.org/2000/svg">
<g filter="url(#filter0_dii_10091_862)">
<circle cx="33" cy="26" r="26" fill="url(#paint0_linear_10091_862)"/>
</g>
<path d="M42 37.9999C42.994 37.9999 43.8 37.194 43.8 36.1999C43.8 35.2058 42.994 34.3999 42 34.3999C41.0059 34.3999 40.2 35.2058 40.2 36.1999C40.2 37.194 41.0059 37.9999 42 37.9999Z" fill="white" fill-opacity="0.08" stroke="white" stroke-width="2" stroke-linecap="round" stroke-linejoin="round"/>
<path d="M30 37.9999C30.994 37.9999 31.8 37.194 31.8 36.1999C31.8 35.2058 30.994 34.3999 30 34.3999C29.0058 34.3999 28.2 35.2058 28.2 36.1999C28.2 37.194 29.0058 37.9999 30 37.9999Z" fill="white" fill-opacity="0.08" stroke="white" stroke-width="2" stroke-linecap="round" stroke-linejoin="round"/>
<path d="M24.6 16.4H45L42.6 29.6H27L24.6 16.4ZM24.6 16.4C24.4 15.6 23.4 14 21 14Z" fill="white" fill-opacity="0.08"/>
<path d="M24.6 16.4H45L42.6 29.6H27L24.6 16.4ZM24.6 16.4C24.4 15.6 23.4 14 21 14" stroke="white" stroke-width="2" stroke-linecap="round" stroke-linejoin="round"/>
<path d="M42.6 29.6001H27H24.8769C22.7357 29.6001 21.6 30.5375 21.6 32.0001C21.6 33.4627 22.7357 34.4001 24.8769 34.4001H42" fill="white" fill-opacity="0.08"/>
<path d="M42.6 29.6001H27H24.8769C22.7357 29.6001 21.6 30.5375 21.6 32.0001C21.6 33.4627 22.7357 34.4001 24.8769 34.4001H42" stroke="white" stroke-width="2" stroke-linecap="round" stroke-linejoin="round"/>
<defs>
<filter id="filter0_dii_10091_862" x="0" y="-3" width="66" height="69" filterUnits="userSpaceOnUse" color-interpolation-filters="sRGB">
<feFlood flood-opacity="0" result="BackgroundImageFix"/>
<feColorMatrix in="SourceAlpha" type="matrix" values="0 0 0 0 0 0 0 0 0 0 0 0 0 0 0 0 0 0 127 0" result="hardAlpha"/>
<feOffset dy="7"/>
<feGaussianBlur stdDeviation="3.5"/>
<feComposite in2="hardAlpha" operator="out"/>
<feColorMatrix type="matrix" values="0 0 0 0 0.8 0 0 0 0 0.929412 0 0 0 0 0.980392 0 0 0 1 0"/>
<feBlend mode="normal" in2="BackgroundImageFix" result="effect1_dropShadow_10091_862"/>
<feBlend mode="normal" in="SourceGraphic" in2="effect1_dropShadow_10091_862" result="shape"/>
<feColorMatrix in="SourceAlpha" type="matrix" values="0 0 0 0 0 0 0 0 0 0 0 0 0 0 0 0 0 0 127 0" result="hardAlpha"/>
<feOffset dx="3" dy="1"/>
<feGaussianBlur stdDeviation="7.5"/>
<feComposite in2="hardAlpha" operator="arithmetic" k2="-1" k3="1"/>
<feColorMatrix type="matrix" values="0 0 0 0 1 0 0 0 0 1 0 0 0 0 1 0 0 0 0.5 0"/>
<feBlend mode="overlay" in2="shape" result="effect2_innerShadow_10091_862"/>
<feColorMatrix in="SourceAlpha" type="matrix" values="0 0 0 0 0 0 0 0 0 0 0 0 0 0 0 0 0 0 127 0" result="hardAlpha"/>
<feOffset dy="-3"/>
<feGaussianBlur stdDeviation="5"/>
<feComposite in2="hardAlpha" operator="arithmetic" k2="-1" k3="1"/>
<feColorMatrix type="matrix" values="0 0 0 0 0 0 0 0 0 0 0 0 0 0 0 0 0 0 0.37 0"/>
<feBlend mode="overlay" in2="effect2_innerShadow_10091_862" result="effect3_innerShadow_10091_862"/>
</filter>
<linearGradient id="paint0_linear_10091_862" x1="59" y1="52" x2="7" y2="1.54972e-06" gradientUnits="userSpaceOnUse">
<stop stop-color="#00A4E4"/>
<stop offset="1" stop-color="#1EB0E9"/>
</linearGradient>
</defs>
</svg>
