<svg width="24" height="24" viewBox="0 0 24 24" fill="none" xmlns="http://www.w3.org/2000/svg">
<path fill-rule="evenodd" clip-rule="evenodd" d="M2.15039 7.00039C2.15039 4.87409 3.87409 3.15039 6.00039 3.15039H14.0004C16.1267 3.15039 17.8504 4.87409 17.8504 7.00039V19.0004C17.8504 19.0832 17.9175 19.1504 18.0004 19.1504C19.1878 19.1504 20.1504 18.1878 20.1504 17.0004V10.0004C20.1504 9.53095 20.5309 9.15039 21.0004 9.15039C21.4698 9.15039 21.8504 9.53095 21.8504 10.0004V17.0004C21.8504 19.1267 20.1267 20.8504 18.0004 20.8504H17.8504H11.0004H6.00039C3.87409 20.8504 2.15039 19.1267 2.15039 17.0004V7.00039ZM6 13.35C5.64102 13.35 5.35 13.641 5.35 14C5.35 14.359 5.64102 14.65 6 14.65H11C11.359 14.65 11.65 14.359 11.65 14C11.65 13.641 11.359 13.35 11 13.35H6ZM5.35 17C5.35 16.641 5.64102 16.35 6 16.35H14C14.359 16.35 14.65 16.641 14.65 17C14.65 17.359 14.359 17.65 14 17.65H6C5.64102 17.65 5.35 17.359 5.35 17ZM7 7C6.44772 7 6 7.44772 6 8V10C6 10.5523 6.44772 11 7 11H13C13.5523 11 14 10.5523 14 10V8C14 7.44772 13.5523 7 13 7H7Z" fill="#CFE5ED"/>
</svg>
